<svg width="179" height="34" viewBox="0 0 179 34" fill="none" xmlns="http://www.w3.org/2000/svg">
<path d="M0 7.16312L14.1345 0V27.0742L0 33.6303V7.16312Z" fill="black"/>
<path d="M27.0504 4.02099L29 0.831909V27.8319L27.0504 31.1933V4.02099Z" fill="black"/>
<path d="M14.6218 0L26.563 3.88399V31.1933L14.6218 27.1879V0Z" fill="black"/>
<path d="M48.272 29L42.32 7.048H46.736L50.288 21.16C50.352 21.3733 50.416 21.672 50.48 22.056C50.544 22.4187 50.608 22.8027 50.672 23.208C50.736 23.6133 50.7893 23.976 50.832 24.296H50.992C51.0347 24.04 51.0667 23.7627 51.088 23.464C51.1307 23.1653 51.1733 22.8667 51.216 22.568C51.28 22.2693 51.3333 22.0027 51.376 21.768C51.4187 21.512 51.4507 21.3093 51.472 21.16L54.768 7.048H60.112L63.408 21.16C63.472 21.3733 63.536 21.672 63.6 22.056C63.664 22.4187 63.728 22.8027 63.792 23.208C63.856 23.6133 63.9093 23.976 63.952 24.296H64.112C64.1547 24.0613 64.1973 23.8053 64.24 23.528C64.304 23.2293 64.3573 22.9413 64.4 22.664C64.464 22.3653 64.528 22.088 64.592 21.832C64.656 21.576 64.7093 21.352 64.752 21.16L68.304 7.048H72.208L66.224 29H61.456L57.904 14.6C57.84 14.3013 57.7653 13.96 57.68 13.576C57.616 13.1707 57.552 12.776 57.488 12.392C57.4453 11.9867 57.4027 11.6347 57.36 11.336H57.232C57.2107 11.656 57.168 12.0293 57.104 12.456C57.0613 12.8613 57.008 13.256 56.944 13.64C56.88 14.024 56.816 14.344 56.752 14.6L53.232 29H48.272ZM80.2495 29.384C78.4575 29.384 76.9642 29.0747 75.7695 28.456C74.5748 27.816 73.6788 26.8453 73.0815 25.544C72.4842 24.2427 72.1855 22.5893 72.1855 20.584C72.1855 18.5573 72.4842 16.904 73.0815 15.624C73.6788 14.3227 74.5748 13.3627 75.7695 12.744C76.9642 12.104 78.4575 11.784 80.2495 11.784C81.8708 11.784 83.2255 12.0933 84.3135 12.712C85.4228 13.3093 86.2548 14.2373 86.8095 15.496C87.3642 16.7547 87.6415 18.3867 87.6415 20.392V21.544H76.1855C76.2282 22.5893 76.3882 23.4747 76.6655 24.2C76.9428 24.904 77.3695 25.4373 77.9455 25.8C78.5428 26.1413 79.3215 26.312 80.2815 26.312C80.7722 26.312 81.2308 26.248 81.6575 26.12C82.0842 25.992 82.4575 25.8 82.7775 25.544C83.0975 25.2667 83.3428 24.9253 83.5135 24.52C83.7055 24.1147 83.8015 23.6453 83.8015 23.112H87.6415C87.6415 24.1787 87.4495 25.1067 87.0655 25.896C86.7028 26.6853 86.1802 27.336 85.4975 27.848C84.8362 28.36 84.0575 28.744 83.1615 29C82.2655 29.256 81.2948 29.384 80.2495 29.384ZM76.2495 18.792H83.5775C83.5775 18.088 83.4922 17.4907 83.3215 17C83.1722 16.5093 82.9482 16.104 82.6495 15.784C82.3722 15.464 82.0308 15.24 81.6255 15.112C81.2202 14.9627 80.7615 14.888 80.2495 14.888C79.4175 14.888 78.7135 15.0267 78.1375 15.304C77.5828 15.5813 77.1562 16.008 76.8575 16.584C76.5588 17.16 76.3562 17.896 76.2495 18.792ZM91.307 29V7.048H95.275L104.651 20.008C104.758 20.136 104.886 20.3173 105.035 20.552C105.184 20.7653 105.323 20.9787 105.451 21.192C105.579 21.4053 105.664 21.576 105.707 21.704H105.867C105.867 21.4053 105.867 21.1173 105.867 20.84C105.867 20.5627 105.867 20.2853 105.867 20.008V7.048H109.867V29H105.931L96.523 15.944C96.3523 15.688 96.1497 15.3787 95.915 15.016C95.7017 14.632 95.5523 14.3653 95.467 14.216H95.307C95.307 14.4933 95.307 14.7813 95.307 15.08C95.307 15.3573 95.307 15.6453 95.307 15.944V29H91.307ZM121.881 29.384C120.046 29.384 118.51 29.0747 117.273 28.456C116.035 27.816 115.107 26.8453 114.489 25.544C113.87 24.2427 113.561 22.5893 113.561 20.584C113.561 18.5573 113.87 16.904 114.489 15.624C115.107 14.3227 116.035 13.3627 117.273 12.744C118.51 12.104 120.046 11.784 121.881 11.784C123.737 11.784 125.273 12.104 126.489 12.744C127.726 13.3627 128.654 14.3227 129.273 15.624C129.891 16.904 130.201 18.5573 130.201 20.584C130.201 22.5893 129.891 24.2427 129.273 25.544C128.654 26.8453 127.726 27.816 126.489 28.456C125.273 29.0747 123.737 29.384 121.881 29.384ZM121.881 26.184C122.905 26.184 123.726 25.992 124.345 25.608C124.985 25.2027 125.443 24.6053 125.721 23.816C126.019 23.0053 126.169 22.0027 126.169 20.808V20.36C126.169 19.1653 126.019 18.1733 125.721 17.384C125.443 16.5733 124.985 15.976 124.345 15.592C123.726 15.1867 122.905 14.984 121.881 14.984C120.857 14.984 120.025 15.1867 119.385 15.592C118.766 15.976 118.307 16.5733 118.009 17.384C117.731 18.1733 117.593 19.1653 117.593 20.36V20.808C117.593 22.0027 117.731 23.0053 118.009 23.816C118.307 24.6053 118.766 25.2027 119.385 25.608C120.025 25.992 120.857 26.184 121.881 26.184ZM137.966 29.384C136.92 29.384 136.099 29.1813 135.502 28.776C134.904 28.3493 134.478 27.816 134.222 27.176C133.987 26.5147 133.87 25.8427 133.87 25.16V15.368H131.854V12.168H133.966L134.67 7.464H137.774V12.168H140.686V15.368H137.774V24.776C137.774 25.224 137.891 25.576 138.126 25.832C138.36 26.0667 138.712 26.184 139.182 26.184H140.686V28.872C140.472 28.9573 140.206 29.032 139.885 29.096C139.587 29.1813 139.267 29.2453 138.926 29.288C138.584 29.352 138.264 29.384 137.966 29.384ZM150.812 29.384C149.02 29.384 147.527 29.0747 146.332 28.456C145.137 27.816 144.241 26.8453 143.644 25.544C143.047 24.2427 142.748 22.5893 142.748 20.584C142.748 18.5573 143.047 16.904 143.644 15.624C144.241 14.3227 145.137 13.3627 146.332 12.744C147.527 12.104 149.02 11.784 150.812 11.784C152.433 11.784 153.788 12.0933 154.876 12.712C155.985 13.3093 156.817 14.2373 157.372 15.496C157.927 16.7547 158.204 18.3867 158.204 20.392V21.544H146.748C146.791 22.5893 146.951 23.4747 147.228 24.2C147.505 24.904 147.932 25.4373 148.508 25.8C149.105 26.1413 149.884 26.312 150.844 26.312C151.335 26.312 151.793 26.248 152.22 26.12C152.647 25.992 153.02 25.8 153.34 25.544C153.66 25.2667 153.905 24.9253 154.076 24.52C154.268 24.1147 154.364 23.6453 154.364 23.112H158.204C158.204 24.1787 158.012 25.1067 157.628 25.896C157.265 26.6853 156.743 27.336 156.06 27.848C155.399 28.36 154.62 28.744 153.724 29C152.828 29.256 151.857 29.384 150.812 29.384ZM146.812 18.792H154.14C154.14 18.088 154.055 17.4907 153.884 17C153.735 16.5093 153.511 16.104 153.212 15.784C152.935 15.464 152.593 15.24 152.188 15.112C151.783 14.9627 151.324 14.888 150.812 14.888C149.98 14.888 149.276 15.0267 148.7 15.304C148.145 15.5813 147.719 16.008 147.42 16.584C147.121 17.16 146.919 17.896 146.812 18.792ZM168.078 29.384C166.862 29.384 165.795 29.256 164.878 29C163.96 28.7227 163.192 28.3493 162.574 27.88C161.955 27.4107 161.486 26.8667 161.166 26.248C160.867 25.608 160.718 24.9147 160.718 24.168C160.718 24.0613 160.718 23.9653 160.718 23.88C160.739 23.7947 160.75 23.7307 160.75 23.688H164.59C164.59 23.7307 164.59 23.7733 164.59 23.816C164.59 23.8587 164.59 23.9013 164.59 23.944C164.611 24.52 164.792 24.9893 165.134 25.352C165.475 25.6933 165.923 25.9387 166.478 26.088C167.032 26.2373 167.619 26.312 168.238 26.312C168.792 26.312 169.315 26.2587 169.806 26.152C170.318 26.024 170.734 25.832 171.054 25.576C171.395 25.2987 171.566 24.9467 171.566 24.52C171.566 23.9653 171.352 23.5387 170.926 23.24C170.499 22.9413 169.934 22.696 169.23 22.504C168.547 22.312 167.811 22.1093 167.022 21.896C166.318 21.704 165.614 21.4907 164.91 21.256C164.206 21.0213 163.566 20.7227 162.99 20.36C162.435 19.9973 161.976 19.528 161.614 18.952C161.272 18.376 161.102 17.6613 161.102 16.808C161.102 15.976 161.283 15.2507 161.646 14.632C162.008 14.0133 162.51 13.5013 163.15 13.096C163.79 12.6693 164.547 12.3493 165.422 12.136C166.296 11.9227 167.246 11.816 168.27 11.816C169.272 11.816 170.179 11.9227 170.99 12.136C171.822 12.3493 172.536 12.6587 173.134 13.064C173.752 13.448 174.222 13.928 174.542 14.504C174.883 15.0587 175.054 15.6773 175.054 16.36C175.054 16.5093 175.043 16.6587 175.022 16.808C175.022 16.9573 175.022 17.0427 175.022 17.064H171.214V16.84C171.214 16.4347 171.086 16.0933 170.83 15.816C170.595 15.5173 170.243 15.2827 169.774 15.112C169.326 14.9413 168.76 14.856 168.078 14.856C167.566 14.856 167.118 14.8987 166.734 14.984C166.35 15.0693 166.03 15.1867 165.774 15.336C165.539 15.4853 165.358 15.656 165.23 15.848C165.102 16.04 165.038 16.2533 165.038 16.488C165.038 16.8933 165.198 17.2133 165.518 17.448C165.838 17.6827 166.264 17.8853 166.798 18.056C167.352 18.2267 167.95 18.408 168.59 18.6C169.358 18.8133 170.147 19.0373 170.958 19.272C171.768 19.4853 172.515 19.7627 173.198 20.104C173.902 20.4453 174.467 20.9253 174.894 21.544C175.32 22.1627 175.534 22.984 175.534 24.008C175.534 24.9893 175.342 25.832 174.958 26.536C174.595 27.2187 174.072 27.7733 173.39 28.2C172.728 28.6053 171.939 28.904 171.022 29.096C170.126 29.288 169.144 29.384 168.078 29.384Z" fill="black"/>
</svg>
